<?xml version="1.0" standalone="no"?>
<!DOCTYPE svg PUBLIC "-//W3C//DTD SVG 1.1//EN" "http://www.w3.org/Graphics/SVG/1.1/DTD/svg11.dtd">
<svg xmlns="http://www.w3.org/2000/svg" xmlns:xlink="http://www.w3.org/1999/xlink" width="375" zoomAndPan="magnify" viewBox="0 0 375 225" height="225" preserveAspectRatio="xMidYMid meet" version="1.0"><defs><g/><clipPath id="5d8ad0329b"><path d="M 22.5 61 L 153.75 61 L 153.75 173.542969 L 22.5 173.542969 Z M 22.5 61 " clip-rule="nonzero"/></clipPath></defs><g clip-path="url(#5d8ad0329b)"><path fill="#fce771" d="M 88.113281 61.113281 L 138.667969 80.316406 L 84.796875 99.691406 L 36.804688 80.617188 Z M 30 84.464844 L 80.429688 104.507812 L 73.40625 117.4375 L 22.542969 97.871094 Z M 31 108.410156 L 72.730469 124.082031 C 73.085938 124.222656 73.957031 124.285156 74.3125 124.285156 C 75.40625 124.285156 77.5625 123.699219 78.109375 122.699219 L 83.460938 114.933594 L 83.460938 173.550781 L 31 153.515625 Z M 140.289062 153.425781 L 87.832031 173.714844 L 87.832031 112.660156 L 95.835938 124.175781 C 96.410156 125.011719 97.351562 125.480469 98.320312 125.480469 C 98.695312 125.480469 97.878906 125.421875 98.234375 125.285156 L 140.28125 108.65625 Z M 99.449219 118.734375 L 89.523438 104.464844 L 146.0625 84.140625 L 153.699219 97.871094 Z M 99.449219 118.734375 " fill-opacity="1" fill-rule="nonzero"/></g><g fill="#fce771" fill-opacity="1"><g transform="translate(179.883362, 126.812111)"><g><path d="M 25.34375 0 L 18.78125 0 L 11.640625 -11.484375 L 9.203125 -9.71875 L 9.203125 0 L 3.421875 0 L 3.421875 -27.234375 L 9.203125 -27.234375 L 9.203125 -14.78125 C 9.585938 -15.3125 9.96875 -15.84375 10.34375 -16.375 C 10.71875 -16.90625 11.097656 -17.441406 11.484375 -17.984375 L 18.859375 -27.234375 L 25.265625 -27.234375 L 15.765625 -15.1875 Z M 25.34375 0 "/></g></g></g><g fill="#fce771" fill-opacity="1"><g transform="translate(205.217819, 126.812111)"><g><path d="M 21.90625 -10.453125 C 21.90625 -8.710938 21.671875 -7.171875 21.203125 -5.828125 C 20.742188 -4.484375 20.066406 -3.347656 19.171875 -2.421875 C 18.285156 -1.503906 17.21875 -0.804688 15.96875 -0.328125 C 14.726562 0.140625 13.320312 0.375 11.75 0.375 C 10.289062 0.375 8.945312 0.140625 7.71875 -0.328125 C 6.5 -0.804688 5.4375 -1.503906 4.53125 -2.421875 C 3.632812 -3.347656 2.941406 -4.484375 2.453125 -5.828125 C 1.960938 -7.171875 1.71875 -8.710938 1.71875 -10.453125 C 1.71875 -12.765625 2.125 -14.71875 2.9375 -16.3125 C 3.757812 -17.914062 4.925781 -19.132812 6.4375 -19.96875 C 7.957031 -20.800781 9.769531 -21.21875 11.875 -21.21875 C 13.820312 -21.21875 15.550781 -20.800781 17.0625 -19.96875 C 18.570312 -19.132812 19.753906 -17.914062 20.609375 -16.3125 C 21.472656 -14.71875 21.90625 -12.765625 21.90625 -10.453125 Z M 7.515625 -10.453125 C 7.515625 -9.085938 7.660156 -7.9375 7.953125 -7 C 8.253906 -6.070312 8.71875 -5.367188 9.34375 -4.890625 C 9.976562 -4.421875 10.804688 -4.1875 11.828125 -4.1875 C 12.835938 -4.1875 13.65625 -4.421875 14.28125 -4.890625 C 14.90625 -5.367188 15.363281 -6.070312 15.65625 -7 C 15.945312 -7.9375 16.09375 -9.085938 16.09375 -10.453125 C 16.09375 -11.828125 15.945312 -12.972656 15.65625 -13.890625 C 15.363281 -14.804688 14.898438 -15.492188 14.265625 -15.953125 C 13.640625 -16.410156 12.816406 -16.640625 11.796875 -16.640625 C 10.296875 -16.640625 9.207031 -16.125 8.53125 -15.09375 C 7.851562 -14.0625 7.515625 -12.515625 7.515625 -10.453125 Z M 7.515625 -10.453125 "/></g></g></g><g fill="#fce771" fill-opacity="1"><g transform="translate(228.838475, 126.812111)"><g><path d="M 14.8125 -21.21875 C 17.03125 -21.21875 18.816406 -20.613281 20.171875 -19.40625 C 21.523438 -18.195312 22.203125 -16.253906 22.203125 -13.578125 L 22.203125 0 L 16.53125 0 L 16.53125 -12.171875 C 16.53125 -13.660156 16.257812 -14.78125 15.71875 -15.53125 C 15.175781 -16.289062 14.328125 -16.671875 13.171875 -16.671875 C 11.429688 -16.671875 10.242188 -16.082031 9.609375 -14.90625 C 8.972656 -13.726562 8.65625 -12.023438 8.65625 -9.796875 L 8.65625 0 L 2.984375 0 L 2.984375 -20.828125 L 7.328125 -20.828125 L 8.078125 -18.171875 L 8.40625 -18.171875 C 8.851562 -18.890625 9.40625 -19.472656 10.0625 -19.921875 C 10.726562 -20.367188 11.46875 -20.695312 12.28125 -20.90625 C 13.09375 -21.113281 13.9375 -21.21875 14.8125 -21.21875 Z M 14.8125 -21.21875 "/></g></g></g><g fill="#fce771" fill-opacity="1"><g transform="translate(253.912136, 126.812111)"><g><path d="M 3.421875 -27.234375 L 11.90625 -27.234375 C 15.53125 -27.234375 18.273438 -26.722656 20.140625 -25.703125 C 22.003906 -24.691406 22.9375 -22.90625 22.9375 -20.34375 C 22.9375 -19.3125 22.769531 -18.378906 22.4375 -17.546875 C 22.113281 -16.710938 21.640625 -16.03125 21.015625 -15.5 C 20.390625 -14.96875 19.632812 -14.617188 18.75 -14.453125 L 18.75 -14.265625 C 19.65625 -14.078125 20.472656 -13.753906 21.203125 -13.296875 C 21.929688 -12.847656 22.515625 -12.191406 22.953125 -11.328125 C 23.398438 -10.472656 23.625 -9.332031 23.625 -7.90625 C 23.625 -6.25 23.21875 -4.828125 22.40625 -3.640625 C 21.601562 -2.460938 20.453125 -1.5625 18.953125 -0.9375 C 17.460938 -0.3125 15.6875 0 13.625 0 L 3.421875 0 Z M 9.203125 -16.453125 L 12.5625 -16.453125 C 14.238281 -16.453125 15.398438 -16.710938 16.046875 -17.234375 C 16.691406 -17.765625 17.015625 -18.546875 17.015625 -19.578125 C 17.015625 -20.617188 16.628906 -21.363281 15.859375 -21.8125 C 15.097656 -22.269531 13.890625 -22.5 12.234375 -22.5 L 9.203125 -22.5 Z M 9.203125 -11.875 L 9.203125 -4.765625 L 12.96875 -4.765625 C 14.707031 -4.765625 15.914062 -5.097656 16.59375 -5.765625 C 17.28125 -6.441406 17.625 -7.347656 17.625 -8.484375 C 17.625 -9.148438 17.472656 -9.738281 17.171875 -10.25 C 16.878906 -10.757812 16.378906 -11.15625 15.671875 -11.4375 C 14.972656 -11.726562 14.007812 -11.875 12.78125 -11.875 Z M 9.203125 -11.875 "/></g></g></g><g fill="#fce771" fill-opacity="1"><g transform="translate(279.544646, 126.812111)"><g><path d="M 11.515625 -21.265625 C 14.304688 -21.265625 16.445312 -20.65625 17.9375 -19.4375 C 19.425781 -18.21875 20.171875 -16.363281 20.171875 -13.875 L 20.171875 0 L 16.203125 0 L 15.109375 -2.828125 L 14.953125 -2.828125 C 14.359375 -2.085938 13.75 -1.476562 13.125 -1 C 12.507812 -0.53125 11.796875 -0.1875 10.984375 0.03125 C 10.179688 0.257812 9.203125 0.375 8.046875 0.375 C 6.816406 0.375 5.710938 0.140625 4.734375 -0.328125 C 3.765625 -0.804688 3 -1.53125 2.4375 -2.5 C 1.882812 -3.476562 1.609375 -4.71875 1.609375 -6.21875 C 1.609375 -8.4375 2.382812 -10.066406 3.9375 -11.109375 C 5.488281 -12.160156 7.816406 -12.742188 10.921875 -12.859375 L 14.53125 -12.96875 L 14.53125 -13.875 C 14.53125 -14.96875 14.242188 -15.769531 13.671875 -16.28125 C 13.097656 -16.789062 12.304688 -17.046875 11.296875 -17.046875 C 10.285156 -17.046875 9.296875 -16.898438 8.328125 -16.609375 C 7.359375 -16.328125 6.390625 -15.96875 5.421875 -15.53125 L 3.546875 -19.375 C 4.648438 -19.957031 5.882812 -20.414062 7.25 -20.75 C 8.625 -21.09375 10.046875 -21.265625 11.515625 -21.265625 Z M 14.53125 -9.65625 L 12.328125 -9.578125 C 10.492188 -9.523438 9.21875 -9.191406 8.5 -8.578125 C 7.789062 -7.972656 7.4375 -7.175781 7.4375 -6.1875 C 7.4375 -5.3125 7.691406 -4.691406 8.203125 -4.328125 C 8.710938 -3.960938 9.375 -3.78125 10.1875 -3.78125 C 11.40625 -3.78125 12.429688 -4.140625 13.265625 -4.859375 C 14.109375 -5.578125 14.53125 -6.601562 14.53125 -7.9375 Z M 14.53125 -9.65625 "/></g></g></g><g fill="#fce771" fill-opacity="1"><g transform="translate(302.587847, 126.812111)"><g><path d="M 17.515625 -6.1875 C 17.515625 -4.769531 17.179688 -3.570312 16.515625 -2.59375 C 15.847656 -1.625 14.851562 -0.882812 13.53125 -0.375 C 12.21875 0.125 10.582031 0.375 8.625 0.375 C 7.175781 0.375 5.929688 0.28125 4.890625 0.09375 C 3.847656 -0.09375 2.800781 -0.40625 1.75 -0.84375 L 1.75 -5.53125 C 2.882812 -5.019531 4.097656 -4.597656 5.390625 -4.265625 C 6.691406 -3.941406 7.832031 -3.78125 8.8125 -3.78125 C 9.914062 -3.78125 10.707031 -3.941406 11.1875 -4.265625 C 11.664062 -4.597656 11.90625 -5.035156 11.90625 -5.578125 C 11.90625 -5.921875 11.804688 -6.234375 11.609375 -6.515625 C 11.421875 -6.796875 11.007812 -7.113281 10.375 -7.46875 C 9.738281 -7.820312 8.742188 -8.28125 7.390625 -8.84375 C 6.085938 -9.394531 5.015625 -9.945312 4.171875 -10.5 C 3.335938 -11.0625 2.71875 -11.722656 2.3125 -12.484375 C 1.914062 -13.253906 1.71875 -14.226562 1.71875 -15.40625 C 1.71875 -17.332031 2.460938 -18.78125 3.953125 -19.75 C 5.453125 -20.726562 7.457031 -21.21875 9.96875 -21.21875 C 11.257812 -21.21875 12.488281 -21.085938 13.65625 -20.828125 C 14.832031 -20.566406 16.046875 -20.148438 17.296875 -19.578125 L 15.578125 -15.484375 C 14.546875 -15.929688 13.570312 -16.296875 12.65625 -16.578125 C 11.75 -16.867188 10.820312 -17.015625 9.875 -17.015625 C 9.039062 -17.015625 8.410156 -16.898438 7.984375 -16.671875 C 7.566406 -16.453125 7.359375 -16.113281 7.359375 -15.65625 C 7.359375 -15.3125 7.46875 -15.007812 7.6875 -14.75 C 7.90625 -14.488281 8.328125 -14.203125 8.953125 -13.890625 C 9.578125 -13.578125 10.5 -13.171875 11.71875 -12.671875 C 12.894531 -12.179688 13.914062 -11.671875 14.78125 -11.140625 C 15.65625 -10.617188 16.328125 -9.96875 16.796875 -9.1875 C 17.273438 -8.414062 17.515625 -7.414062 17.515625 -6.1875 Z M 17.515625 -6.1875 "/></g></g></g><g fill="#fce771" fill-opacity="1"><g transform="translate(321.551433, 126.812111)"><g><path d="M 11.5625 -21.21875 C 13.488281 -21.21875 15.144531 -20.847656 16.53125 -20.109375 C 17.925781 -19.367188 19.003906 -18.296875 19.765625 -16.890625 C 20.523438 -15.492188 20.90625 -13.78125 20.90625 -11.75 L 20.90625 -9 L 7.46875 -9 C 7.53125 -7.394531 8.007812 -6.132812 8.90625 -5.21875 C 9.8125 -4.3125 11.066406 -3.859375 12.671875 -3.859375 C 13.992188 -3.859375 15.207031 -3.992188 16.3125 -4.265625 C 17.425781 -4.535156 18.566406 -4.945312 19.734375 -5.5 L 19.734375 -1.09375 C 18.703125 -0.582031 17.625 -0.210938 16.5 0.015625 C 15.375 0.253906 14.007812 0.375 12.40625 0.375 C 10.320312 0.375 8.472656 -0.0078125 6.859375 -0.78125 C 5.253906 -1.550781 3.992188 -2.722656 3.078125 -4.296875 C 2.171875 -5.878906 1.71875 -7.867188 1.71875 -10.265625 C 1.71875 -12.703125 2.128906 -14.726562 2.953125 -16.34375 C 3.773438 -17.96875 4.925781 -19.1875 6.40625 -20 C 7.882812 -20.8125 9.601562 -21.21875 11.5625 -21.21875 Z M 11.609375 -17.171875 C 10.503906 -17.171875 9.585938 -16.816406 8.859375 -16.109375 C 8.128906 -15.398438 7.707031 -14.289062 7.59375 -12.78125 L 15.578125 -12.78125 C 15.566406 -13.625 15.414062 -14.375 15.125 -15.03125 C 14.832031 -15.6875 14.394531 -16.207031 13.8125 -16.59375 C 13.238281 -16.976562 12.503906 -17.171875 11.609375 -17.171875 Z M 11.609375 -17.171875 "/></g></g></g></svg>